<svg width="1829" height="2074" viewBox="0 0 156.25 177.16206752227635" class="css-1j8o68f">
  <defs id="SvgjsDefs1011"></defs>
  <g id="SvgjsG1012" featurekey="rootContainer" transform="matrix(3.1502007406971018,0,0,3.1502007406971018,0.000023179328736052197,0.013147506542870495)" fill="#00a0c3">
    <path xmlns="http://www.w3.org/2000/svg" d="M23.11 55.78L1.69 43.41A3.39 3.39 0 0 1 0 40.48V15.75a3.39 3.39 0 0 1 1.69-2.94L23.11.45a3.39 3.39 0 0 1 3.39 0l21.41 12.37a3.39 3.39 0 0 1 1.69 2.94v24.72a3.39 3.39 0 0 1-1.69 2.94L26.5 55.78a3.39 3.39 0 0 1-3.39 0z">
    </path>
  </g>
  <g id="SvgjsG1013" featurekey="nameFeature-0" transform="matrix(1.8368705316129397,0,0,1.8368705316129397,24.693634444517706,40.6922976290269)" fill="#f5f5f5">
    <path d="M25.92 37 c-2.48 2.24 -5.8 3.4 -9.52 3.4 c-7.84 0 -14.6 -5.88 -14.6 -14.4 s6.76 -14.4 14.6 -14.4 c3.68 0 6.96 1.2 9.36 3.32 l-3.52 3.96 c-1.48 -1.04 -3.48 -1.8 -5.52 -1.8 c-5.04 0 -8.84 3.72 -8.84 8.92 s3.8 8.92 8.84 8.92 c2.12 0 4.2 -0.8 5.72 -2 z M56.08 25.119999999999997 c1.24 9.4 -4.88 15.28 -12.44 15.28 c-7.96 0 -14.52 -5.88 -14.52 -14.4 s6.72 -14.4 14.52 -14.4 c3.72 0 7 1.2 9.4 3.32 l-3.52 3.96 c-1.48 -1.04 -3.48 -1.8 -5.52 -1.8 c-5.08 0 -8.8 3.72 -8.8 8.92 s3.6 8.92 8.44 8.92 c3.68 0 6.24 -1.32 7.04 -4.84 l-6.6 0 l0 -4.96 l12 0 z"></path>
  </g>
</svg>