<?xml version="1.0" standalone="no"?>
<!DOCTYPE svg PUBLIC "-//W3C//DTD SVG 20010904//EN"
 "http://www.w3.org/TR/2001/REC-SVG-20010904/DTD/svg10.dtd">
<svg version="1.0" xmlns="http://www.w3.org/2000/svg"
 width="734.000000pt" height="734.000000pt" viewBox="0 0 734.000000 734.000000"
 preserveAspectRatio="xMidYMid meet">
<metadata>
Created by potrace 1.14, written by Peter Selinger 2001-2017
</metadata>
<g transform="translate(0.000000,734.000000) scale(0.100000,-0.100000)"
fill="#000000" stroke="none">
<path d="M3569 7156 c-43 -12 -188 -83 -199 -97 -7 -9 -68 -40 -76 -38 -4 0
-10 -3 -13 -8 -3 -5 -33 -24 -66 -43 -33 -19 -63 -38 -66 -43 -3 -5 -10 -8
-14 -6 -4 1 -14 -3 -24 -10 -9 -6 -30 -19 -47 -29 -146 -81 -261 -148 -272
-159 -8 -7 -18 -11 -23 -8 -5 4 -9 3 -9 -2 0 -4 -25 -21 -55 -38 -30 -16 -55
-33 -55 -37 0 -4 -3 -7 -7 -6 -15 3 -82 -33 -111 -60 -7 -7 -18 -10 -23 -7 -5
4 -9 2 -9 -3 0 -5 -15 -15 -32 -23 -18 -7 -35 -16 -38 -20 -3 -3 -21 -14 -40
-24 -19 -10 -37 -21 -40 -24 -3 -3 -30 -19 -60 -35 -30 -16 -66 -38 -79 -48
-13 -10 -30 -18 -37 -18 -8 0 -14 -5 -14 -11 0 -5 -4 -7 -10 -4 -5 3 -10 1
-10 -6 0 -7 -3 -10 -6 -6 -4 3 -26 -7 -50 -23 -23 -17 -47 -30 -53 -30 -6 0
-11 -5 -11 -11 0 -5 -5 -7 -10 -4 -5 3 -10 1 -10 -5 0 -6 -4 -9 -9 -5 -5 3
-12 1 -15 -4 -4 -5 -37 -27 -74 -47 -37 -21 -80 -47 -97 -56 -16 -10 -45 -26
-63 -35 -17 -9 -32 -20 -32 -25 0 -4 -6 -8 -14 -8 -8 0 -22 -8 -32 -17 -10
-10 -18 -17 -18 -15 -2 7 -43 -13 -75 -37 -19 -14 -37 -26 -40 -25 -3 1 -15
-4 -26 -11 -74 -45 -198 -115 -206 -115 -5 0 -9 -3 -9 -8 0 -4 -22 -18 -50
-31 -27 -13 -50 -27 -50 -32 0 -4 -13 -10 -30 -14 -17 -4 -30 -11 -30 -16 0
-5 -5 -9 -11 -9 -6 0 -29 -13 -52 -29 -23 -16 -45 -28 -49 -27 -4 0 -18 -8
-30 -19 -13 -10 -24 -17 -25 -15 -1 3 -10 -2 -20 -10 -10 -9 -20 -16 -23 -16
-7 0 -98 -53 -145 -83 -45 -29 -108 -94 -127 -131 -7 -14 -17 -28 -21 -31 -4
-3 -10 -18 -13 -34 -3 -15 -10 -38 -17 -49 -9 -16 -12 -390 -13 -1596 -1 -866
2 -1602 6 -1635 10 -72 21 -118 29 -125 3 -3 15 -22 25 -43 41 -79 124 -145
304 -239 23 -12 42 -26 42 -31 0 -4 4 -6 9 -3 5 3 14 -1 21 -9 7 -8 17 -15 22
-15 6 0 23 -9 39 -21 16 -11 29 -17 29 -12 0 4 4 3 8 -2 7 -12 86 -60 137 -85
17 -8 32 -17 35 -20 5 -5 22 -15 99 -57 25 -14 51 -29 56 -33 6 -4 30 -19 55
-32 25 -14 74 -43 110 -63 36 -21 80 -45 98 -54 17 -8 32 -19 32 -23 0 -4 10
-8 22 -8 12 0 18 -3 15 -6 -3 -4 17 -19 46 -34 29 -15 68 -37 87 -48 19 -12
58 -33 85 -48 28 -15 53 -32 57 -38 4 -6 8 -7 8 -2 0 5 8 3 18 -5 9 -8 29 -21
44 -29 16 -7 28 -17 28 -22 0 -5 5 -6 10 -3 6 3 10 1 10 -4 0 -6 3 -10 8 -9 4
1 35 -14 70 -35 35 -20 67 -37 73 -37 5 0 9 -4 9 -10 0 -5 5 -10 10 -10 6 0
40 -18 76 -40 36 -22 70 -40 74 -40 5 0 10 -3 12 -7 2 -5 19 -16 38 -26 60
-30 125 -70 132 -81 4 -6 8 -8 8 -4 0 4 33 -13 74 -37 40 -25 79 -45 85 -45 6
0 11 -5 11 -11 0 -5 4 -8 9 -5 5 4 11 2 13 -3 1 -5 10 -11 18 -13 8 -2 23 -12
33 -22 9 -10 17 -16 17 -11 0 4 6 3 13 -3 6 -5 28 -19 47 -30 19 -10 91 -51
159 -91 68 -39 127 -71 132 -71 5 0 9 -3 9 -7 0 -5 23 -19 50 -32 28 -14 50
-29 50 -33 0 -4 7 -8 16 -8 9 0 28 -8 42 -19 84 -59 256 -74 365 -32 31 12 57
27 57 33 0 6 3 8 6 5 4 -4 19 2 34 13 16 11 33 20 38 20 6 0 17 6 24 13 7 6
27 19 43 27 17 8 32 17 35 21 3 3 37 22 75 44 109 59 118 65 150 85 17 11 47
27 68 37 20 10 37 21 37 25 0 5 6 8 14 8 8 0 21 6 28 13 7 6 31 21 53 32 22
11 42 23 45 26 3 4 30 19 60 35 30 15 61 34 68 40 6 7 22 16 34 20 12 4 28 13
36 20 7 8 18 12 23 9 5 -4 9 -2 9 4 0 6 11 13 25 17 14 3 25 10 25 14 0 4 14
13 30 20 17 7 30 17 30 22 0 6 7 8 15 4 8 -3 15 -2 15 3 0 5 14 14 30 21 16 7
30 15 30 19 0 4 12 12 28 18 15 7 54 28 87 48 33 20 68 39 78 42 9 3 17 9 17
14 0 5 4 9 9 9 10 0 153 80 161 90 6 8 32 18 42 16 3 0 17 9 30 20 13 12 33
25 46 29 12 3 22 10 22 14 0 4 16 13 35 21 19 8 35 18 35 22 0 5 5 6 10 3 6
-3 10 -2 10 2 0 5 26 22 58 38 31 16 63 35 70 42 7 7 18 13 24 13 6 0 19 6 27
14 9 8 23 16 31 18 14 3 20 7 54 36 8 6 19 12 23 12 4 0 46 23 92 50 46 28 87
50 91 50 4 0 17 9 30 20 13 11 29 20 37 20 7 0 13 4 13 10 0 5 3 9 8 8 4 -1
50 23 102 53 202 119 246 144 275 159 17 8 39 22 49 32 11 10 24 18 28 18 9 0
59 49 92 90 28 35 65 121 75 176 13 67 13 3177 0 3235 -15 67 -63 159 -112
212 -24 26 -49 47 -55 47 -6 0 -17 6 -24 13 -7 8 -33 25 -58 39 -93 52 -125
72 -132 83 -4 5 -8 7 -8 3 0 -4 -29 10 -65 32 -36 22 -69 40 -74 40 -5 0 -16
6 -23 14 -8 7 -34 24 -58 36 -24 12 -50 29 -58 36 -7 8 -17 12 -22 9 -5 -3
-10 -2 -12 2 -4 9 -48 36 -98 61 -19 9 -36 20 -38 25 -2 4 -10 7 -18 7 -8 0
-14 5 -14 10 0 6 -9 10 -20 10 -11 0 -23 7 -26 15 -4 8 -14 15 -24 15 -10 0
-20 4 -22 8 -1 4 -34 25 -73 47 -38 21 -86 47 -105 58 -19 11 -47 28 -61 38
-14 10 -29 16 -33 12 -3 -3 -6 -2 -6 4 0 5 -26 23 -57 39 -32 16 -60 32 -63
35 -9 10 -55 33 -62 31 -5 -1 -8 2 -8 6 0 4 -22 19 -50 33 -27 13 -50 27 -50
32 0 4 -4 7 -9 7 -5 0 -44 20 -85 45 -42 25 -79 45 -82 45 -3 0 -12 7 -21 15
-8 8 -19 13 -24 10 -5 -4 -9 -2 -9 4 0 5 -10 13 -22 17 -13 4 -26 12 -30 18
-4 6 -11 11 -15 11 -4 0 -19 8 -33 17 -59 38 -169 98 -179 98 -6 0 -11 4 -11
8 0 5 -16 14 -35 22 -19 8 -35 17 -35 21 0 4 -8 9 -17 12 -10 4 -40 20 -68 37
-27 17 -58 33 -67 37 -10 3 -18 9 -18 14 0 5 -3 8 -7 7 -5 -2 -26 8 -48 21
-22 14 -43 24 -47 23 -5 -1 -8 2 -8 7 0 5 -29 23 -65 41 -36 18 -65 37 -65 42
0 6 -6 8 -13 5 -8 -3 -20 3 -27 13 -8 11 -18 16 -23 13 -5 -3 -12 -1 -16 4 -6
9 -108 73 -116 73 -3 0 -40 21 -83 47 -138 84 -261 110 -373 79z"/>
</g>
</svg>
